<?xml version="1.0" standalone="no"?>
<!DOCTYPE svg PUBLIC "-//W3C//DTD SVG 20010904//EN"
 "http://www.w3.org/TR/2001/REC-SVG-20010904/DTD/svg10.dtd">
<svg version="1.0" xmlns="http://www.w3.org/2000/svg"
 width="1152.000000pt" height="310.000000pt" viewBox="0 0 1152.000000 310.000000"
 preserveAspectRatio="xMidYMid meet">

<g transform="translate(0.000000,310.000000) scale(0.100000,-0.100000)"
fill="#000000" stroke="none">
<path d="M1182 3085 c-82 -25 -149 -87 -184 -170 -8 -20 -14 -117 -18 -305
l-5 -275 -32 -68 c-39 -82 -110 -155 -190 -193 -57 -28 -61 -29 -293 -34 -209
-5 -240 -8 -280 -26 -69 -32 -110 -72 -141 -139 l-29 -60 0 -267 c0 -309 6
-341 82 -415 75 -74 91 -77 373 -83 245 -5 251 -6 307 -32 110 -51 178 -122
219 -226 21 -52 23 -80 28 -322 7 -300 9 -309 88 -387 71 -68 97 -73 413 -73
l276 0 52 26 c59 29 106 79 136 143 19 42 21 70 26 341 l5 295 28 58 c39 79
108 146 192 188 l70 34 245 5 c232 5 247 7 290 29 61 32 97 67 128 126 l27 50
0 285 c0 269 -1 288 -21 331 -27 58 -85 116 -143 143 -43 20 -62 21 -306 21
-247 0 -263 -1 -317 -23 -61 -25 -127 -82 -154 -134 -37 -72 -44 -127 -44
-364 0 -173 -4 -243 -15 -280 -35 -119 -128 -221 -242 -264 -48 -19 -84 -24
-204 -28 -91 -3 -173 0 -215 8 -132 22 -247 109 -302 228 l-27 57 0 265 0 265
27 57 c15 32 39 73 55 93 33 43 130 110 181 126 20 6 129 15 242 18 192 6 209
8 260 32 72 34 120 76 152 136 42 77 50 145 46 393 l-3 225 -31 55 c-37 66
-97 114 -166 135 -70 20 -521 21 -586 0z"/>
<path d="M4245 1976 c-97 -19 -177 -51 -233 -93 -63 -49 -78 -67 -115 -143
-29 -59 -32 -74 -32 -155 1 -189 72 -284 255 -339 34 -11 121 -20 228 -26 198
-11 243 -20 271 -57 27 -33 26 -53 -1 -88 -28 -36 -72 -53 -155 -61 -118 -11
-260 20 -353 77 -67 41 -123 46 -179 17 -75 -39 -102 -126 -64 -205 31 -67
175 -142 323 -169 101 -18 346 -18 434 1 254 54 386 230 346 463 -21 126 -87
207 -204 251 -81 30 -149 40 -326 49 -179 9 -225 22 -236 66 -8 35 20 81 63
102 31 15 61 19 158 19 l121 0 89 -45 c135 -67 215 -60 265 23 24 39 26 116 5
157 -28 54 -138 119 -247 145 -91 22 -326 28 -413 11z"/>
<path d="M5645 1975 c-207 -39 -362 -149 -445 -318 -55 -111 -73 -204 -67
-337 14 -300 182 -507 471 -580 96 -24 268 -27 369 -5 130 27 292 127 331 204
31 59 24 133 -16 177 -63 68 -144 65 -240 -9 -87 -68 -147 -89 -248 -90 -89 0
-145 16 -210 63 -38 27 -89 100 -96 140 l-6 30 399 0 c400 0 400 0 434 23 62
42 79 79 79 174 0 349 -362 602 -755 528z m239 -299 c69 -21 123 -60 157 -113
55 -87 69 -83 -261 -83 -327 0 -312 -4 -265 76 62 106 232 161 369 120z"/>
<path d="M7975 1983 c-167 -22 -328 -130 -402 -270 -102 -190 -102 -475 -2
-663 97 -182 311 -292 537 -276 127 9 259 62 317 126 32 35 38 24 32 -55 -13
-148 -73 -228 -201 -267 -56 -17 -85 -20 -157 -15 -98 6 -147 24 -249 90 -57
37 -71 42 -122 42 -93 -1 -150 -60 -150 -155 0 -117 112 -212 317 -266 100
-26 381 -27 475 -1 165 47 306 156 367 287 61 129 63 154 63 746 0 517 -1 539
-20 579 -30 61 -83 88 -166 83 -85 -5 -130 -40 -157 -123 -2 -5 -23 7 -47 28
-105 90 -272 132 -435 110z m283 -328 c73 -22 131 -70 166 -137 25 -49 29 -68
29 -138 0 -70 -4 -89 -29 -138 -51 -100 -149 -152 -284 -152 -92 0 -155 24
-210 80 -56 55 -80 118 -80 210 0 37 8 88 17 115 21 62 93 136 154 158 57 20
172 21 237 2z"/>
<path d="M9505 1976 c-151 -30 -250 -83 -344 -182 -123 -129 -180 -293 -168
-484 7 -112 26 -180 75 -275 70 -132 198 -235 357 -285 96 -31 299 -38 405
-16 205 44 376 191 355 306 -13 70 -47 106 -115 121 -52 12 -98 -5 -170 -61
-79 -61 -142 -83 -235 -83 -131 0 -226 47 -282 143 -59 98 -89 90 362 90 377
0 398 1 435 20 58 30 80 79 80 179 0 238 -176 447 -435 516 -84 23 -235 28
-320 11z m243 -301 c64 -19 130 -69 159 -120 45 -79 59 -75 -267 -75 -330 0
-316 -4 -261 82 66 103 231 154 369 113z"/>
<path d="M10795 1980 c-230 -37 -369 -157 -395 -341 -17 -120 23 -256 93 -315
82 -69 173 -93 401 -105 202 -11 260 -26 272 -73 11 -43 -13 -83 -65 -108 -40
-20 -61 -23 -156 -23 -128 1 -191 17 -303 76 -84 44 -118 48 -178 18 -46 -22
-84 -82 -84 -132 0 -95 109 -184 285 -233 94 -26 391 -31 492 -9 157 34 270
113 322 225 22 47 26 69 26 155 0 119 -18 182 -71 244 -76 89 -202 126 -468
140 -193 10 -219 19 -224 83 -3 29 2 40 28 61 41 35 89 47 185 47 98 0 137
-10 242 -62 73 -36 87 -40 128 -34 87 13 146 97 130 183 -14 75 -127 154 -266
188 -78 19 -312 27 -394 15z"/>
<path d="M7177 1970 c-66 -17 -133 -58 -181 -110 -46 -53 -48 -53 -60 1 -15
67 -79 109 -169 109 -60 0 -104 -23 -141 -73 -21 -28 -21 -39 -24 -518 -2
-337 1 -502 8 -531 39 -142 245 -158 318 -24 14 26 17 73 22 311 5 276 5 281
31 335 48 102 112 145 242 161 45 6 97 13 115 15 42 6 98 56 113 101 15 47 6
128 -18 161 -39 52 -69 67 -146 69 -40 1 -89 -2 -110 -7z"/>
</g>
</svg>
