<svg xmlns="http://www.w3.org/2000/svg" viewBox="95.0 694.1 360.0 360.0" preserveAspectRatio="xMidYMid meet" role="img" aria-label="SERGES">
<g transform="translate(0,1856) scale(0.1,-0.1)" fill="#2042E1" stroke="none">
<path d="M2399 11507 c-56 -16 -130 -68 -163 -116 -51 -74 -56 -104 -56 -370
0 -136 -5 -273 -11 -305 -29 -159 -126 -277 -279 -338 -50 -20 -78 -23 -305
-28 -248 -5 -250 -5 -307 -33 -61 -30 -105 -74 -140 -140 -22 -41 -23 -52 -26
-350 -4 -368 -2 -379 88 -469 82 -82 110 -88 386 -88 251 0 300 -7 397 -58
115 -59 202 -179 227 -311 5 -30 10 -163 10 -296 0 -200 3 -250 17 -291 23
-69 101 -144 178 -173 56 -21 70 -22 359 -19 l301 3 50 27 c64 34 118 90 147
153 22 48 23 63 28 365 6 338 8 348 64 445 46 77 146 156 241 188 16 6 147 13
290 16 259 6 260 6 317 34 76 37 143 113 164 183 13 45 15 104 12 351 l-3 298
-27 51 c-32 60 -93 118 -157 148 -42 19 -66 21 -284 24 -152 2 -264 -1 -308
-8 -115 -20 -208 -80 -251 -165 -42 -80 -48 -128 -48 -390 0 -137 -5 -270 -11
-294 -37 -164 -175 -302 -335 -336 -91 -19 -336 -19 -427 0 -136 29 -240 112
-304 243 l-38 77 -3 257 c-3 217 -1 267 13 315 42 146 150 259 290 306 16 5
127 13 245 17 185 5 223 9 274 28 81 30 130 64 171 120 66 90 70 114 70 432 0
283 0 285 -25 333 -30 59 -96 121 -158 150 -44 21 -63 22 -337 24 -208 2 -303
-1 -336 -10z"/>
</g>
</svg>
