<?xml version="1.0" standalone="no"?>
<!DOCTYPE svg PUBLIC "-//W3C//DTD SVG 20010904//EN"
 "http://www.w3.org/TR/2001/REC-SVG-20010904/DTD/svg10.dtd">
<svg version="1.0" xmlns="http://www.w3.org/2000/svg"
 width="1485.000000pt" height="1856.000000pt" viewBox="0 0 1485.000000 1856.000000"
 preserveAspectRatio="xMidYMid meet">

<g transform="translate(0.000000,1856.000000) scale(0.100000,-0.100000)"
fill="#2042E1" stroke="none">
<path d="M2399 11507 c-56 -16 -130 -68 -163 -116 -51 -74 -56 -104 -56 -370
0 -136 -5 -273 -11 -305 -29 -159 -126 -277 -279 -338 -50 -20 -78 -23 -305
-28 -248 -5 -250 -5 -307 -33 -61 -30 -105 -74 -140 -140 -22 -41 -23 -52 -26
-350 -4 -368 -2 -379 88 -469 82 -82 110 -88 386 -88 251 0 300 -7 397 -58
115 -59 202 -179 227 -311 5 -30 10 -163 10 -296 0 -200 3 -250 17 -291 23
-69 101 -144 178 -173 56 -21 70 -22 359 -19 l301 3 50 27 c64 34 118 90 147
153 22 48 23 63 28 365 6 338 8 348 64 445 46 77 146 156 241 188 16 6 147 13
290 16 259 6 260 6 317 34 76 37 143 113 164 183 13 45 15 104 12 351 l-3 298
-27 51 c-32 60 -93 118 -157 148 -42 19 -66 21 -284 24 -152 2 -264 -1 -308
-8 -115 -20 -208 -80 -251 -165 -42 -80 -48 -128 -48 -390 0 -137 -5 -270 -11
-294 -37 -164 -175 -302 -335 -336 -91 -19 -336 -19 -427 0 -136 29 -240 112
-304 243 l-38 77 -3 257 c-3 217 -1 267 13 315 42 146 150 259 290 306 16 5
127 13 245 17 185 5 223 9 274 28 81 30 130 64 171 120 66 90 70 114 70 432 0
283 0 285 -25 333 -30 59 -96 121 -158 150 -44 21 -63 22 -337 24 -208 2 -303
-1 -336 -10z"/>
<path d="M5785 10289 c-131 -19 -272 -86 -337 -158 -86 -97 -124 -234 -99
-365 15 -79 43 -135 94 -185 85 -85 202 -118 468 -131 197 -10 260 -26 278
-73 31 -81 -52 -144 -202 -153 -125 -8 -231 15 -352 76 -113 57 -154 62 -221
29 -76 -36 -107 -145 -65 -227 39 -75 192 -153 361 -183 115 -21 387 -18 483
4 265 63 406 251 369 493 -21 136 -85 224 -199 276 -92 41 -183 57 -388 67
-198 9 -237 20 -256 69 -15 37 14 89 62 114 107 55 343 33 448 -41 37 -26 102
-42 142 -35 69 13 112 54 129 125 15 62 0 119 -45 163 -37 37 -135 88 -213
111 -105 31 -326 43 -457 24z"/>
<path d="M7303 10286 c-269 -52 -456 -213 -535 -461 -26 -80 -35 -273 -18
-369 46 -263 227 -455 495 -528 65 -17 108 -21 225 -21 129 0 155 3 233 26
111 34 166 63 241 124 73 59 101 109 100 179 -2 96 -61 154 -157 154 -55 0
-71 -7 -147 -65 -78 -60 -130 -84 -205 -94 -168 -24 -323 47 -384 178 -41 86
-69 81 421 81 431 0 433 0 473 23 62 35 85 85 85 187 0 159 -48 269 -175 396
-128 130 -275 191 -475 199 -66 3 -132 -1 -177 -9z m302 -345 c59 -26 119 -81
146 -133 37 -72 55 -68 -301 -68 -316 0 -320 0 -320 20 0 62 92 154 187 187
89 31 212 28 288 -6z"/>
<path d="M9843 10289 c-184 -31 -347 -149 -428 -309 -57 -113 -77 -204 -77
-350 0 -150 21 -242 83 -360 72 -139 220 -252 379 -291 80 -20 271 -17 345 5
65 19 179 82 209 115 11 12 23 21 28 21 4 0 8 -33 8 -73 0 -103 -22 -160 -85
-224 -73 -73 -155 -98 -298 -91 -121 6 -184 27 -276 92 -72 51 -104 61 -168
51 -98 -14 -155 -109 -131 -219 20 -94 154 -192 327 -238 111 -30 376 -37 492
-13 212 43 369 158 450 330 67 144 69 163 69 817 0 548 -2 585 -19 624 -29 64
-80 97 -156 102 -94 6 -156 -30 -190 -112 l-16 -38 -41 37 c-114 103 -323 154
-505 124z m372 -370 c59 -28 116 -83 146 -141 34 -65 38 -194 9 -272 -27 -71
-89 -137 -158 -168 -39 -18 -66 -22 -162 -22 -106 -1 -119 1 -166 26 -59 31
-108 84 -138 147 -30 65 -29 216 1 282 38 83 103 141 193 170 14 5 70 7 125 5
80 -2 110 -8 150 -27z"/>
<path d="M11550 10286 c-91 -16 -211 -65 -291 -118 -132 -88 -236 -254 -266
-423 -18 -105 -13 -256 13 -350 39 -146 140 -288 264 -370 266 -177 704 -160
923 36 68 60 97 112 97 171 0 91 -64 158 -151 158 -62 0 -87 -10 -152 -63 -70
-57 -127 -84 -207 -96 -124 -20 -250 18 -329 99 -43 44 -85 125 -77 146 4 12
79 14 438 14 411 0 434 1 473 20 82 40 111 142 80 291 -27 136 -90 241 -199
332 -68 56 -190 118 -281 142 -82 22 -243 27 -335 11z m312 -350 c31 -15 71
-43 89 -63 34 -39 71 -112 63 -125 -3 -4 -149 -8 -325 -8 -357 0 -342 -3 -298
70 67 112 171 162 324 156 72 -2 101 -8 147 -30z"/>
<path d="M12965 10290 c-80 -13 -147 -36 -228 -78 -156 -81 -231 -237 -206
-432 11 -91 28 -129 85 -190 86 -92 202 -126 474 -140 231 -11 284 -30 284
-105 0 -69 -75 -113 -207 -121 -125 -8 -231 15 -352 76 -113 56 -154 62 -220
30 -48 -23 -73 -61 -81 -123 -9 -63 10 -110 64 -157 118 -105 353 -160 622
-147 369 18 568 194 546 482 -7 101 -56 207 -115 254 -100 79 -209 107 -472
119 -228 11 -259 23 -259 98 0 39 17 62 61 84 109 56 329 39 440 -35 128 -84
266 -32 285 108 9 64 -21 126 -80 166 -63 44 -148 80 -226 97 -81 18 -335 26
-415 14z"/>
<path d="M8980 10274 c-89 -24 -183 -87 -217 -145 -10 -16 -20 -29 -24 -29 -4
0 -12 20 -18 45 -14 55 -61 110 -108 126 -58 19 -145 7 -187 -25 -74 -56 -71
-26 -71 -647 l0 -555 28 -43 c85 -128 296 -99 336 46 6 22 11 146 11 293 0
275 6 324 54 418 31 61 57 85 130 118 43 19 87 30 155 36 123 12 165 30 196
82 43 76 40 162 -8 230 -44 62 -157 82 -277 50z"/>
<path d="M8102 7899 c-22 -8 -52 -62 -52 -94 0 -25 66 -20 73 5 7 25 34 25 72
0 39 -26 96 -26 119 -1 9 10 20 35 23 55 5 34 4 36 -23 36 -18 0 -34 -7 -42
-20 -15 -25 -36 -25 -76 -1 -43 26 -67 31 -94 20z"/>
<path d="M3076 7884 c-35 -34 -8 -104 40 -104 48 0 76 67 44 105 -16 20 -64
19 -84 -1z"/>
<path d="M12356 7838 l-45 -63 40 -3 c35 -3 49 3 95 39 30 23 54 44 54 48 0 6
-78 41 -92 41 -4 0 -27 -28 -52 -62z"/>
<path d="M4970 7754 l0 -137 -20 25 c-31 40 -85 60 -155 60 -127 -1 -208 -77
-221 -209 -16 -156 81 -273 225 -273 64 0 130 27 155 61 16 23 16 23 16 -19
l0 -42 50 0 50 0 0 335 0 335 -50 0 -50 0 0 -136z m-62 -161 c81 -59 82 -206
2 -265 -30 -22 -88 -33 -124 -24 -72 18 -124 107 -111 188 7 42 54 104 89 119
33 14 115 4 144 -18z"/>
<path d="M13100 7754 l0 -137 -20 25 c-31 40 -85 60 -155 60 -127 -1 -208 -77
-221 -209 -16 -156 81 -273 225 -273 64 0 130 27 155 61 16 23 16 23 16 -19
l0 -42 50 0 50 0 0 335 0 335 -50 0 -50 0 0 -136z m-62 -161 c81 -59 82 -206
2 -265 -30 -22 -88 -33 -124 -24 -72 18 -124 107 -111 188 7 42 54 104 89 119
33 14 115 4 144 -18z"/>
<path d="M1238 7847 c-97 -28 -138 -78 -138 -167 0 -92 32 -124 170 -171 126
-43 149 -55 161 -87 36 -94 -102 -137 -237 -73 -34 16 -65 34 -68 40 -13 20
-25 12 -47 -31 l-21 -41 23 -19 c13 -10 49 -30 79 -45 48 -24 67 -28 150 -28
80 0 103 4 142 23 64 32 91 72 96 142 8 105 -25 138 -191 196 -139 48 -175 88
-129 144 28 34 109 38 187 11 33 -12 67 -24 76 -27 11 -4 21 7 33 34 10 22 15
45 12 50 -12 20 -117 52 -184 57 -40 3 -85 0 -114 -8z"/>
<path d="M6230 7850 c-111 -19 -193 -78 -241 -175 -30 -61 -31 -69 -27 -152 5
-103 24 -147 90 -209 64 -62 120 -87 209 -92 82 -5 164 13 232 51 l37 21 0
118 0 118 -45 0 -45 0 0 -91 0 -90 -37 -16 c-194 -81 -386 76 -332 270 13 47
70 112 120 138 72 36 194 23 260 -29 l25 -20 27 33 c15 19 27 38 27 43 0 17
-114 70 -174 81 -65 12 -61 12 -126 1z"/>
<path d="M11194 7851 c-122 -30 -186 -142 -136 -241 23 -47 64 -72 179 -109
112 -36 143 -60 143 -107 0 -49 -38 -74 -109 -74 -72 0 -115 12 -174 50 -26
16 -49 30 -51 30 -2 0 -11 -18 -21 -40 -17 -38 -17 -41 -1 -59 9 -10 45 -32
79 -47 54 -26 74 -29 157 -29 79 0 102 4 136 22 82 44 117 117 95 200 -18 67
-79 109 -217 149 -106 31 -146 97 -86 144 23 19 36 21 92 18 43 -3 82 -14 116
-31 l51 -26 22 46 c12 25 21 47 19 48 -2 1 -21 12 -43 23 -74 36 -178 50 -251
33z"/>
<path d="M7660 7750 l0 -70 -35 0 c-33 0 -35 -2 -35 -35 0 -33 2 -35 34 -35
l35 0 3 -161 3 -161 37 -34 c33 -29 45 -34 88 -34 65 0 125 24 116 46 -3 9 -9
26 -12 39 -5 21 -9 23 -31 14 -41 -15 -81 -11 -93 10 -5 11 -10 78 -10 150 l0
131 70 0 70 0 0 35 0 35 -70 0 -70 0 0 70 0 70 -50 0 -50 0 0 -70z"/>
<path d="M7311 7699 c-46 -9 -88 -31 -108 -58 -34 -46 -22 -135 23 -170 14
-11 61 -32 105 -46 48 -16 85 -35 94 -48 19 -28 19 -33 -5 -57 -30 -30 -112
-27 -176 5 -27 14 -50 25 -51 25 -1 0 -10 -14 -19 -32 -16 -31 -16 -32 6 -50
35 -29 126 -51 189 -46 110 8 161 53 161 142 0 63 -39 107 -117 131 -95 29
-133 52 -133 79 0 13 7 29 16 36 20 18 103 15 149 -4 47 -20 42 -21 60 15 20
38 10 53 -48 67 -68 17 -99 20 -146 11z"/>
<path d="M1765 7681 c-46 -21 -90 -62 -112 -105 -21 -41 -28 -141 -13 -196 16
-61 89 -134 150 -150 69 -19 170 -8 224 24 58 34 61 39 33 71 l-23 27 -49 -27
c-89 -48 -187 -24 -227 56 l-18 34 183 5 182 5 -2 54 c-7 152 -76 221 -219
221 -45 0 -83 -7 -109 -19z m190 -83 c23 -18 55 -72 55 -93 0 -3 -63 -5 -140
-5 -91 0 -140 4 -140 10 0 25 33 72 63 90 45 28 125 27 162 -2z"/>
<path d="M2210 7460 l0 -240 50 0 50 0 0 136 c0 106 4 144 17 171 19 41 62 71
116 79 36 6 37 8 37 50 0 42 -1 44 -30 44 -40 0 -81 -22 -114 -60 l-26 -32 0
46 0 46 -50 0 -50 0 0 -240z"/>
<path d="M2520 7692 c0 -4 40 -111 89 -237 l89 -230 53 -3 54 -3 42 113 c24
62 65 171 92 241 l50 128 -51 -3 -52 -3 -26 -75 c-15 -41 -44 -124 -65 -183
-21 -60 -41 -105 -45 -100 -4 4 -22 51 -40 103 -18 52 -46 132 -62 178 l-30
82 -49 0 c-27 0 -49 -4 -49 -8z"/>
<path d="M3070 7460 l0 -240 50 0 50 0 0 240 0 240 -50 0 -50 0 0 -240z"/>
<path d="M3399 7672 c-97 -50 -142 -171 -109 -292 17 -63 90 -135 153 -151 26
-6 47 -13 47 -14 0 -1 -7 -19 -15 -38 -13 -31 -13 -36 -1 -31 21 8 56 -14 56
-35 0 -32 -27 -46 -61 -34 -27 11 -31 9 -39 -10 -11 -30 1 -39 59 -45 43 -4
53 -1 75 21 18 18 26 37 26 60 0 33 -24 67 -48 67 -7 0 -12 4 -12 8 0 20 29
40 74 52 27 8 65 27 83 43 l34 30 -27 28 -27 28 -26 -19 c-35 -26 -111 -42
-148 -31 -53 15 -71 30 -92 74 -76 157 78 295 227 205 l34 -21 30 30 30 30
-33 25 c-48 36 -92 48 -169 48 -55 0 -78 -5 -121 -28z"/>
<path d="M3910 7684 c-46 -20 -87 -59 -113 -109 -29 -53 -30 -174 -3 -225 44
-83 106 -121 211 -128 58 -4 80 0 123 18 115 49 168 172 131 303 -13 49 -73
115 -124 138 -51 23 -175 25 -225 3z m196 -90 c62 -41 82 -147 41 -218 -52
-92 -170 -100 -240 -17 -88 106 -4 272 131 256 23 -2 54 -12 68 -21z"/>
<path d="M5330 7684 c-46 -20 -87 -59 -113 -109 -31 -57 -30 -173 0 -232 29
-53 83 -98 139 -113 86 -24 222 4 264 55 12 14 10 20 -11 40 l-24 25 -49 -25
c-91 -46 -180 -25 -224 53 l-23 42 185 0 186 0 0 43 c0 56 -24 137 -52 172
-33 43 -92 65 -173 64 -40 0 -85 -6 -105 -15z m181 -81 c27 -16 59 -66 59 -92
0 -7 -45 -11 -140 -11 -77 0 -140 2 -140 5 0 21 45 87 68 99 37 21 117 20 153
-1z"/>
<path d="M6765 7676 c-59 -27 -77 -46 -104 -106 -50 -111 -13 -255 82 -314 86
-53 233 -45 310 17 l27 23 -29 28 -29 28 -31 -23 c-44 -33 -134 -37 -179 -10
-29 19 -72 74 -72 94 0 4 81 7 180 7 l180 0 0 63 c-1 97 -49 178 -123 206 -51
20 -157 13 -212 -13z m216 -94 c16 -18 29 -43 29 -57 l0 -25 -135 0 c-88 0
-135 4 -135 10 0 21 30 69 57 90 24 19 38 21 92 18 57 -4 67 -8 92 -36z"/>
<path d="M8058 7674 l-57 -27 14 -28 c21 -39 27 -41 73 -19 26 13 62 20 97 20
49 0 60 -4 86 -29 16 -17 29 -40 29 -54 0 -25 -1 -25 -107 -29 -84 -2 -117 -8
-147 -24 -52 -27 -79 -76 -73 -133 9 -83 70 -131 169 -131 65 0 103 12 136 42
l22 21 0 -31 c0 -32 0 -32 51 -32 l50 0 -3 189 c-3 173 -5 192 -24 217 -43 58
-68 69 -167 72 -82 2 -98 0 -149 -24z m242 -267 c0 -65 -55 -107 -140 -107
-58 0 -90 24 -90 68 0 55 31 69 158 71 l72 1 0 -33z"/>
<path d="M8642 7685 c-96 -43 -142 -115 -142 -223 0 -156 107 -251 271 -240
119 9 198 76 219 188 21 109 -27 218 -115 264 -52 27 -184 33 -233 11z m187
-92 c85 -64 85 -202 0 -266 -38 -28 -106 -32 -149 -10 -53 28 -80 75 -80 143
0 68 27 115 80 143 43 22 111 18 149 -10z"/>
<path d="M9435 7681 c-46 -21 -90 -62 -112 -105 -21 -41 -28 -141 -13 -196 16
-61 89 -134 150 -150 69 -19 170 -8 224 24 58 34 61 39 33 71 l-23 27 -49 -27
c-89 -48 -187 -24 -227 56 l-18 34 183 5 182 5 -2 54 c-7 152 -76 221 -219
221 -45 0 -83 -7 -109 -19z m190 -83 c23 -18 55 -72 55 -93 0 -3 -63 -5 -140
-5 -91 0 -140 4 -140 10 0 25 33 72 63 90 45 28 125 27 162 -2z"/>
<path d="M9880 7460 l0 -240 50 0 50 0 0 148 c0 141 1 149 25 184 46 68 153
76 199 15 19 -26 21 -44 24 -188 l3 -159 50 0 49 0 0 140 c0 120 3 146 20 179
31 61 110 88 170 58 49 -24 60 -67 60 -229 l0 -148 50 0 50 0 0 169 c0 176 -7
219 -44 259 -34 38 -71 52 -137 52 -71 0 -135 -30 -159 -74 -17 -33 -21 -33
-42 4 -27 48 -74 70 -146 70 -70 0 -115 -17 -149 -58 l-23 -27 0 43 0 42 -50
0 -50 0 0 -240z"/>
<path d="M11668 7674 l-57 -27 14 -28 c21 -39 27 -41 73 -19 26 13 62 20 97
20 49 0 60 -4 86 -29 16 -17 29 -40 29 -54 0 -25 -1 -25 -107 -29 -84 -2 -117
-8 -147 -24 -52 -27 -79 -76 -73 -133 9 -83 70 -131 169 -131 65 0 103 12 136
42 l22 21 0 -31 c0 -32 0 -32 51 -32 l50 0 -3 189 c-3 173 -5 192 -24 217 -43
58 -68 69 -167 72 -82 2 -98 0 -149 -24z m242 -267 c0 -65 -55 -107 -140 -107
-58 0 -90 24 -90 68 0 55 31 69 158 71 l72 1 0 -33z"/>
<path d="M12142 7511 c3 -207 6 -216 71 -265 63 -47 202 -26 252 37 l25 32 0
-47 0 -48 50 0 50 0 0 240 0 240 -50 0 -50 0 0 -132 c0 -109 -4 -141 -19 -175
-30 -66 -91 -94 -156 -73 -65 21 -75 52 -75 228 l0 152 -51 0 -50 0 3 -189z"/>
<path d="M13455 7681 c-46 -21 -90 -62 -112 -105 -21 -41 -28 -141 -13 -196
16 -61 89 -134 150 -150 69 -19 170 -8 224 24 58 34 61 39 33 71 l-23 27 -49
-27 c-89 -48 -187 -24 -227 56 l-18 34 183 5 182 5 -2 54 c-7 152 -76 221
-219 221 -45 0 -83 -7 -109 -19z m190 -83 c23 -18 55 -72 55 -93 0 -3 -63 -5
-140 -5 -91 0 -140 4 -140 10 0 25 33 72 63 90 45 28 125 27 162 -2z"/>
</g>
</svg>
